<svg width="150" height="114" viewBox="0 0 150 114" fill="none" xmlns="http://www.w3.org/2000/svg">
<path d="M18.3548 19.1615C22.1099 12.4172 26.5164 8.07062 31.1747 5.3888C35.5994 2.89148 40.568 1.61587 45.6041 1.68425C52.9337 1.68425 60.0225 4.04221 65.3706 6.49107C68.6272 7.96141 71.7569 9.71779 74.7255 11.7411H74.7583C74.8963 11.8413 75.0607 11.8951 75.2291 11.8951C75.3976 11.8951 75.5619 11.8413 75.6999 11.7411H75.7327L75.8476 11.6615L76.313 11.3433C76.7235 11.0706 77.3257 10.6786 78.0975 10.207C80.1937 8.9268 82.3554 7.766 84.5732 6.72971C89.9814 4.2013 97.2891 1.68425 104.827 1.68425C109.863 1.61587 114.831 2.89148 119.256 5.3888C123.914 8.07062 128.321 12.4172 132.076 19.1615C134.131 22.8782 135.189 27.0982 135.142 31.3831C135.142 37.6899 133.089 44.4513 129.711 51.2695H102.736L95.5375 30.1899C95.4864 30.0338 95.3922 29.8967 95.2667 29.7957C95.1411 29.6947 94.9897 29.6342 94.8313 29.6218C94.6727 29.6084 94.5138 29.6432 94.3738 29.7218C94.2339 29.8005 94.119 29.9197 94.0431 30.0649L75.1196 66.2979L55.6324 36.6786C55.5582 36.5677 55.4603 36.4762 55.3463 36.4111C55.2324 36.3461 55.1055 36.3092 54.9755 36.3036C54.8458 36.3007 54.7173 36.3295 54.6003 36.3878C54.4834 36.446 54.3812 36.532 54.3022 36.6388L43.4966 51.2638H20.7305C17.353 44.4456 15.3003 37.6672 15.3058 31.3774C15.2538 27.096 16.3066 22.8782 18.3548 19.1615Z" fill="#03045E"/>
<path d="M106.446 82.9684C96.7238 93.2363 86.2958 102.758 75.2445 111.457L74.2373 110.673C73.2739 109.912 71.878 108.792 70.1483 107.36C66.6887 104.52 61.8935 100.4 56.5673 95.4287C45.915 85.5025 33.1388 72.1332 24.6651 58.3491C23.5704 56.565 22.5486 54.7772 21.5997 52.9855H43.9445C44.0704 52.9844 44.1945 52.9537 44.3073 52.8956C44.4201 52.8376 44.5188 52.7537 44.5958 52.6503L54.958 38.6275L74.5657 68.4287C74.645 68.5497 74.7529 68.6475 74.8792 68.7126C75.0054 68.7778 75.1456 68.8081 75.2864 68.8007C75.4271 68.7933 75.5637 68.7483 75.6829 68.6702C75.8022 68.5922 75.9 68.4835 75.9671 68.3548L94.6277 32.5991L101.404 52.44C101.462 52.6054 101.566 52.7485 101.704 52.8501C101.842 52.9517 102.007 53.0069 102.176 53.0082H128.862C128.074 54.5234 127.227 56.0234 126.322 57.5082C120.974 66.3832 113.787 75.1559 106.446 82.9684Z" fill="#03045E"/>
<path d="M21.5839 52.9912C22.5254 54.7829 23.5472 56.5708 24.6493 58.3549C33.123 72.1105 45.8991 85.5083 56.5515 95.4344C61.8776 100.4 66.6728 104.525 70.1324 107.366C71.8621 108.798 73.258 109.917 74.2214 110.679L75.2286 111.463C86.28 102.763 96.7079 93.242 106.43 82.9742C113.754 75.1617 120.958 66.3889 126.312 57.4969C127.217 55.9817 128.063 54.4817 128.851 52.9969H130.756C129.662 55.0954 128.479 57.1882 127.209 59.2753C118.593 73.2583 105.735 86.7185 95.0224 96.7071C84.3099 106.696 75.7486 113.184 75.7377 113.213C75.5965 113.321 75.4258 113.379 75.2505 113.379C75.0752 113.379 74.9044 113.321 74.7633 113.213C63.9886 104.784 53.7984 95.5799 44.2679 85.6673C36.6482 77.6787 29.0175 68.5935 23.2754 59.2696C21.9872 57.1863 20.8048 55.0935 19.7282 52.9912H21.5839Z" fill="black"/>
<path d="M129.739 51.2867C133.117 44.4685 135.175 37.6901 135.169 31.4003C135.217 27.1154 134.159 22.8954 132.104 19.1787C128.349 12.4344 123.942 8.0878 119.284 5.40599C114.859 2.90867 109.891 1.63305 104.855 1.70144C97.2896 1.70144 89.9818 4.21849 84.6009 6.74689C82.3832 7.78318 80.2214 8.94399 78.1252 10.2242C77.3534 10.6958 76.7513 11.0878 76.3407 11.3605L75.8754 11.6787L75.7605 11.7583H75.7276C75.5896 11.8585 75.4253 11.9122 75.2569 11.9122C75.0885 11.9122 74.9241 11.8585 74.7861 11.7583H74.7533C71.7846 9.73497 68.6549 7.97859 65.3983 6.50826C60.0502 4.0594 52.9615 1.70144 45.6319 1.70144C40.5958 1.63305 35.6272 2.90867 31.2025 5.40599C26.5442 8.0878 22.1376 12.4344 18.3825 19.1787C16.3276 22.8954 15.2692 27.1154 15.3171 31.4003C15.3171 37.7071 17.3644 44.4685 20.7418 51.2867H18.9081C15.673 44.5594 13.6749 37.8264 13.6749 31.4003C13.6261 26.818 14.7601 22.3057 16.9593 18.3321C20.8349 11.3605 25.4659 6.75826 30.4034 3.91735C35.073 1.2808 40.3165 -0.0671591 45.6319 0.00257448C53.5472 0.00257448 61.0465 2.61053 66.5862 5.19576C69.5903 6.59017 72.4887 8.21789 75.2569 10.0651C78.025 8.21789 80.9235 6.59017 83.9276 5.19576C89.4672 2.61053 96.9666 0.0082563 104.882 0.00257448C110.197 -0.0671591 115.441 1.2808 120.11 3.91735C125.037 6.75826 129.679 11.3605 133.554 18.3321C135.754 22.3057 136.888 26.818 136.839 31.4003C136.839 37.8435 134.841 44.5764 131.606 51.2867H129.739Z" fill="black"/>
<path d="M148.519 52.991H102.182C102.013 52.9897 101.848 52.9345 101.71 52.8329C101.572 52.7313 101.468 52.5881 101.41 52.4228L94.6277 32.5991L75.9456 68.3944C75.8785 68.5231 75.7807 68.6317 75.6615 68.7098C75.5423 68.7879 75.4057 68.8328 75.265 68.8403C75.1242 68.8477 74.9839 68.8174 74.8577 68.7522C74.7315 68.687 74.6235 68.5893 74.5443 68.4683L54.9366 38.6671L44.5744 52.6899C44.4974 52.7933 44.3986 52.8772 44.2858 52.9352C44.173 52.9933 44.0489 53.024 43.923 53.0251H0.821091C0.603317 53.0251 0.39447 52.9353 0.240479 52.7755C0.0865021 52.6156 0 52.3988 0 52.1728C0 51.9468 0.0865021 51.73 0.240479 51.5702C0.39447 51.4103 0.603317 51.3205 0.821091 51.3205H43.5179L54.3235 36.6955C54.4025 36.5887 54.5046 36.5027 54.6216 36.4445C54.7385 36.3863 54.8671 36.3574 54.9968 36.3603C55.1267 36.366 55.2536 36.4028 55.3676 36.4678C55.4815 36.5329 55.5795 36.6244 55.6537 36.7353L75.1409 66.3546L94.0808 30.0876C94.1567 29.9424 94.2715 29.8232 94.4115 29.7445C94.5514 29.6658 94.7104 29.631 94.869 29.6444C95.0274 29.6568 95.1789 29.7173 95.3044 29.8183C95.43 29.9193 95.5241 30.0564 95.5752 30.2126L102.773 51.2921H148.519C148.737 51.2921 148.946 51.3819 149.1 51.5418C149.254 51.7016 149.34 51.9184 149.34 52.1444C149.34 52.3704 149.254 52.5872 149.1 52.747C148.946 52.9069 148.737 52.9967 148.519 52.9967V52.991Z" fill="white"/>
</svg>
