<svg width="121" height="150" viewBox="0 0 121 150" fill="none" xmlns="http://www.w3.org/2000/svg">
<path d="M106.233 123.304L106.234 123.305C110.939 125.871 113.199 131.245 111.728 136.402C110.021 142.384 103.727 145.99 97.571 144.179L67.9443 135.465L67.1955 135.244L67.7087 134.656C69.5412 132.556 70.4158 129.692 69.9234 126.785L69.7925 126.013L70.5481 126.219C75.1368 127.473 82.0348 129.356 92.4499 132.193C93.745 132.545 95.0794 131.781 95.4319 130.487C95.7844 129.192 95.0211 127.857 93.7265 127.505L93.7264 127.505C82.1535 124.353 74.8854 122.366 70.2919 121.111C68.9414 120.742 67.8221 120.436 66.8925 120.182C62.7733 119.058 62.4037 118.964 62.1678 118.929L62.1673 118.924C62.1028 118.918 62.0228 118.908 61.928 118.896C61.2527 118.812 59.8322 118.636 57.9967 119.133L106.233 123.304ZM106.233 123.304L79.1083 108.553L78.9966 108.493H78.8695H42.1308H42.0036L41.8919 108.553L14.7675 123.304L14.7669 123.305C10.0602 125.872 7.7979 131.222 9.2721 136.379C11.0103 142.461 17.3631 145.958 23.4292 144.174L23.2881 143.694L23.4293 144.174L61.8173 132.88C64.2489 132.166 65.6729 129.679 65.058 127.222C64.4232 124.679 61.824 123.121 59.2456 123.821L59.245 123.821L28.5539 132.193L28.5537 132.193C27.26 132.546 25.9276 131.783 25.5745 130.489L25.0921 130.62L25.5745 130.489C25.2218 129.196 25.9892 127.859 27.2851 127.506L57.9959 119.133L106.233 123.304ZM96.6129 74.137V74.637H97.1129H110.496C115.882 74.637 120.278 79.1349 120.278 84.5353C120.278 89.9356 115.882 94.433 110.496 94.433H88.4389C86.399 94.433 84.4176 93.7683 82.7165 92.7912L81.9675 92.361V93.2248V104.233V104.53L82.2283 104.672L108.521 118.994C108.521 118.994 108.521 118.994 108.521 118.994C115.24 122.659 118.499 130.354 116.399 137.712C113.917 146.412 104.839 151.375 96.2004 148.834L60.6342 138.376L60.4931 138.334L60.352 138.376L24.8022 148.834C16.1399 151.382 7.09933 146.389 4.62014 137.713C2.51726 130.355 5.7577 122.66 12.4788 118.994C12.4788 118.994 12.4789 118.994 12.479 118.994L38.7717 104.673L39.0325 104.531V104.233V93.2248V92.3609L38.2834 92.7912C36.5827 93.7683 34.6013 94.433 32.5611 94.433H10.5039C5.11814 94.433 0.722412 89.9359 0.722412 84.5353C0.722412 79.1347 5.11818 74.637 10.5039 74.637H23.8874H24.3874V74.137V52.9578C24.3874 41.8808 33.2646 32.752 44.3246 32.752H46.7531H47.9845L47.1017 31.8935C43.8904 28.7708 41.8956 24.0679 41.8956 19.0553C41.8956 8.79892 50.2407 0.5 60.5001 0.5C70.759 0.5 79.1044 8.81476 79.1047 19.0717C79.1047 24.0835 77.1102 28.7705 73.8986 31.8935L73.0158 32.752H74.2472H76.6756C87.7357 32.752 96.6129 41.8808 96.6129 52.9578V74.137ZM76.6095 103.635H77.1095V103.135V55.8991C77.1095 54.5576 78.1969 53.4701 79.5385 53.4701C80.8798 53.4701 81.9675 54.5576 81.9675 55.8991V55.9159V55.9331V55.9507V55.9687V55.9872V56.006V56.0253V56.045V56.0651V56.0857V56.1066V56.1279V56.1497V56.1718V56.1944V56.2174V56.2407V56.2645V56.2887V56.3132V56.3382V56.3635V56.3893V56.4154V56.4419V56.4688V56.4961V56.5237V56.5518V56.5802V56.609V56.6382V56.6677V56.6976V56.7279V56.7586V56.7896V56.821V56.8528V56.8849V56.9174V56.9502V56.9834V57.017V57.0509V57.0851V57.1197V57.1547V57.19V57.2256V57.2616V57.298V57.3347V57.3717V57.409V57.4467V57.4847V57.5231V57.5618V57.6008V57.6401V57.6798V57.7198V57.7601V57.8007V57.8417V57.883V57.9245V57.9664V58.0087V58.0512V58.094V58.1371V58.1806V58.2243V58.2684V58.3127V58.3574V58.4023V58.4476V58.4931V58.5389V58.5851V58.6315V58.6782V58.7251V58.7724V58.82V58.8678V58.9159V58.9643V59.0129V59.0619V59.1111V59.1605V59.2103V59.2603V59.3106V59.3611V59.4119V59.463V59.5143V59.5659V59.6177V59.6698V59.7221V59.7747V59.8276V59.8806V59.934V59.9876V60.0414V60.0954V60.1497V60.2043V60.259V60.314V60.3693V60.4247V60.4804V60.5364V60.5925V60.6489V60.7055V60.7623V60.8193V60.8766V60.934V60.9917V61.0496V61.1077V61.166V61.2245V61.2833V61.3422V61.4013V61.4607V61.5202V61.5799V61.6398V61.6999V61.7603V61.8207V61.8814V61.9423V62.0034V62.0646V62.126V62.1876V62.2494V62.3114V62.3735V62.4358V62.4983V62.561V62.6238V62.6868V62.7499V62.8133V62.8767V62.9404V63.0042V63.0681V63.1322V63.1965V63.2609V63.3255V63.3902V63.4551V63.5201V63.5852V63.6505V63.716V63.7815V63.8473V63.9131V63.9791V64.0452V64.1114V64.1778V64.2443V64.3109V64.3777V64.4445V64.5115V64.5786V64.6459V64.7132V64.7807V64.8482V64.9159V64.9837V65.0516V65.1196V65.1877V65.2559V65.3242V65.3926V65.4611V65.5297V65.5984V65.6672V65.736V65.805V65.8741V65.9432V66.0124V66.0817V66.1511V66.2205V66.2901V66.3597V66.4294V66.4991V66.569V66.6389V66.7088V66.7788V66.8489V66.9191V66.9893V67.0596V67.1299V67.2003V67.2707V67.3412V67.4118V67.4823V67.553V67.6237V67.6944V67.7652V67.836V67.9068V67.9777V68.0486V68.1196V68.1906V68.2616V68.3326V68.4037V68.4748V68.5459V68.617V68.6882V68.7594V68.8306V68.9018V68.973V69.0443V69.1155V69.1868V69.258V69.3293V69.4006V69.4718V69.5431V69.6144V69.6857V69.7569V69.8282V69.8994V69.9707V70.0419V70.1131V70.1843V70.2555V70.3267V70.3978V70.469V70.5401V70.6112V70.6822V70.7532V70.8242V70.8952V70.9661V71.037V71.1079V71.1787V71.2495V71.3202V71.3909V71.4616V71.5322V71.6027V71.6732V71.7437V71.8141V71.8845V71.9548V72.025V72.0952V72.1653V72.2353V72.3053V72.3752V72.4451V72.5149V72.5846V72.6542V72.7238V72.7933V72.8627V72.932V73.0013V73.0704V73.1395V73.2085V73.2774V73.3462V73.4149V73.4836V73.5521V73.6205V73.6889V73.7571V73.8253V73.8933V73.9612V74.029V74.0968V74.1644V74.2319V74.2992V74.3665V74.4337V74.5007V74.5676V74.6344V74.7011V74.7676V74.834V74.9003V74.9665V75.0325V75.0984V75.1642V75.2298V75.2953V75.3606V75.4258V75.4909V75.5558V75.6206V75.6852V75.7497V75.814V75.8782V75.9422V76.006V76.0697V76.1333V76.1966V76.2599V76.3229V76.3858V76.4485V76.5111V76.5734V76.6356V76.6977V76.7595V76.8212V76.8827V76.944V77.0051V77.066V77.1268V77.1874V77.2477V77.3079V77.3679V77.4277V77.4873V77.5467V77.6059V77.6649V77.7237V77.7823V77.8407V77.8989V77.9568V78.0146V78.0721V78.1295V78.1866V78.2435V78.3001V78.3566V78.4128V78.4688V78.5246V78.5802V78.6355V78.6906V78.7454V78.8V78.8544V78.9086V78.9625V79.0161V79.0696V79.1227V79.1757V79.2283V79.2808V79.333V79.3849V79.4366V79.488V79.5391V79.59V79.6407V79.691V79.7411V79.791V79.8405V79.8898V79.9389V79.9876V80.0361V80.0843V80.1322V80.1799V80.2273V80.2743V80.3211V80.3677V80.4139V80.4598V80.5055V80.5508V80.5959V80.6406V80.6851V80.7292V80.7731V80.8166V80.8599V80.9028V80.9455V80.9878V81.0298V81.0715V81.1129V81.154V81.1947V81.2351V81.2752V81.315V81.3545V81.3936V81.4324V81.4709V81.509V81.5469V81.5843V81.6215V81.6583V81.6947V81.7308V81.7666V81.802V81.8371V81.8719V81.9062V81.9403V81.974V82.0073V82.0403V82.0729V82.1051V82.137V82.1685V82.1997V82.2305V82.2609V82.291V82.3207V82.35V82.3789V82.4075V82.4356V82.4634V82.4909V82.5179V82.5445V82.5708V82.5967V82.6222V82.6473V82.672V82.6963V82.7202V82.7437V82.7668V82.7895V82.8118V82.8337V82.8552V82.8763V82.897V82.9172V82.9371V82.9565V82.9755V82.9941V83.0123V83.0301V83.0474V83.0643C81.9675 86.5859 84.9084 89.575 88.4389 89.575H110.496C113.228 89.575 115.42 87.2335 115.42 84.5353C115.42 81.8368 113.228 79.495 110.496 79.495H94.3209C92.9217 79.495 91.7545 78.4692 91.7545 77.1823V52.9581C91.7545 44.5791 85.0781 37.6103 76.6753 37.6103H44.3246C35.9218 37.6103 29.2455 44.5791 29.2455 52.9581V77.1823C29.2455 78.4692 28.078 79.495 26.6791 79.495H10.5039C7.77171 79.495 5.58016 81.8372 5.58016 84.5353C5.58016 87.2335 7.77211 89.575 10.5039 89.575H32.5611C36.0915 89.575 39.0325 86.5859 39.0322 83.0643V55.8991C39.0322 54.5576 40.1199 53.4701 41.4612 53.4701C42.8028 53.4701 43.8903 54.5576 43.8903 55.8991V55.9392V55.9799V56.0212V56.0632V56.1057V56.1488V56.1926V56.2369V56.2818V56.3274V56.3735V56.4202V56.4675V56.5154V56.5638V56.6129V56.6625V56.7127V56.7635V56.8148V56.8667V56.9192V56.9722V57.0258V57.08V57.1347V57.19V57.2458V57.3022V57.3591V57.4165V57.4745V57.5331V57.5921V57.6518V57.7119V57.7726V57.8338V57.8955V57.9577V58.0205V58.0838V58.1476V58.2119V58.2767V58.342V58.4079V58.4742V58.541V58.6084V58.6762V58.7445V58.8133V58.8826V58.9524V59.0227V59.0935V59.1647V59.2364V59.3086V59.3812V59.4544V59.528V59.602V59.6765V59.7515V59.827V59.9028V59.9792V60.056V60.1332V60.2109V60.289V60.3676V60.4466V60.526V60.6059V60.6862V60.767V60.8481V60.9297V61.0117V61.0941V61.177V61.2602V61.3439V61.428V61.5124V61.5973V61.6826V61.7683V61.8544V61.9409V62.0277V62.115V62.2026V62.2907V62.3791V62.4679V62.557V62.6466V62.7365V62.8268V62.9175V63.0085V63.0999V63.1916V63.2837V63.3762V63.469V63.5622V63.6557V63.7495V63.8438V63.9383V64.0332V64.1284V64.224V64.3199V64.4161V64.5126V64.6095V64.7067V64.8042V64.902V65.0002V65.0986V65.1974V65.2965V65.3959V65.4955V65.5955V65.6958V65.7964V65.8973V65.9984V66.0999V66.2016V66.3036V66.4059V66.5085V66.6114V66.7145V66.8179V66.9216V67.0255V67.1297V67.2342V67.3389V67.4439V67.5491V67.6546V67.7604V67.8664V67.9726V68.0791V68.1858V68.2927V68.3999V68.5074V68.615V68.7229V68.831V68.9393V69.0479V69.1567V69.2656V69.3748V69.4843V69.5939V69.7037V69.8137V69.924V70.0344V70.145V70.2559V70.3669V70.4781V70.5895V70.7011V70.8128V70.9248V71.0369V71.1492V71.2616V71.3743V71.4871V71.6001V71.7132V71.8265V71.9399V72.0535V72.1673V72.2812V72.3953V72.5095V72.6238V72.7383V72.853V72.9677V73.0826V73.1977V73.3129V73.4281V73.5436V73.6591V73.7748V73.8905V74.0064V74.1224V74.2385V74.3548V74.4711V74.5875V74.7041V74.8207V74.9374V75.0542V75.1712V75.2881V75.4052V75.5224V75.6396V75.757V75.8744V75.9919V76.1094V76.227V76.3447V76.4625V76.5803V76.6982V76.8161V76.9341V77.0521V77.1702V77.2883V77.4065V77.5247V77.643V77.7613V77.8796V77.998V78.1164V78.2348V78.3533V78.4717V78.5902V78.7088V78.8273V78.9458V79.0644V79.183V79.3015V79.4201V79.5387V79.6573V79.7758V79.8944V80.013V80.1315V80.2501V80.3686V80.4871V80.6056V80.7241V80.8425V80.9609V81.0793V81.1976V81.316V81.4342V81.5525V81.6707V81.7888V81.9069V82.025V82.143V82.261V82.3789V82.4967V82.6145V82.7322V82.8498V82.9674V83.0849V83.2024V83.3197V83.437V83.5542V83.6713V83.7884V83.9053V84.0222V84.139V84.2556V84.3722V84.4887V84.6051V84.7213V84.8375V84.9535V85.0695V85.1853V85.301V85.4166V85.5321V85.6474V85.7627V85.8778V85.9927V86.1076V86.2223V86.3368V86.4512V86.5655V86.6796V86.7936V86.9074V87.0211V87.1346V87.248V87.3612V87.4743V87.5871V87.6999V87.8124V87.9248V88.037V88.149V88.2608V88.3725V88.484V88.5953V88.7064V88.8173V88.928V89.0385V89.1488V89.2589V89.3689V89.4786V89.5881V89.6974V89.8065V89.9153V90.024V90.1324V90.2406V90.3486V90.4564V90.5639V90.6712V90.7782V90.8851V90.9916V91.098V91.2041V91.3099V91.4155V91.5209V91.626V91.7308V91.8354V91.9397V92.0438V92.1476V92.2511V92.3544V92.4573V92.56V92.6625V92.7646V92.8665V92.9681V93.0694V93.1704V93.2711V93.3715V93.4716V93.5714V93.6709V93.7702V93.8691V93.9677V94.0659V94.1639V94.2616V94.3589V94.4559V94.5526V94.649V94.745V94.8407V94.9361V95.0311V95.1258V95.2202V95.3142V95.4079V95.5012V95.5942V95.6868V95.7791V95.871V95.9625V96.0537V96.1445V96.235V96.3251V96.4148V96.5041V96.5931V96.6817V96.7699V96.8577V96.9451V97.0322V97.1188V97.2051V97.2909V97.3764V97.4615V97.5461V97.6304V97.7142V97.7977V97.8807V97.9633V98.0455V98.1273V98.2086V98.2895V98.37V98.4501V98.5297V98.6089V98.6877V98.766V98.8439V98.9213V98.9983V99.0749V99.151V99.2266V99.3018V99.3765V99.4508V99.5246V99.5979V99.6708V99.7432V99.8151V99.8865V99.9575V100.028V100.098V100.168V100.237V100.305V100.373V100.441V100.508V100.574V100.64V100.706V100.771V100.836V100.9V100.963V101.026V101.089V101.15V101.212V101.273V101.333V101.393V101.452V101.511V101.569V101.627V101.684V101.741V101.797V101.852V101.907V101.962V102.016V102.069V102.122V102.174V102.225V102.276V102.327V102.377V102.426V102.475V102.523V102.571V102.617V102.664V102.71V102.755V102.799V102.843V102.887V102.93V102.972V103.013V103.054V103.095V103.135V103.635H44.3903H76.6095ZM60.5001 5.39084C52.9199 5.39084 46.7537 11.5571 46.7537 19.1373C46.7537 26.7173 52.9199 32.8835 60.5001 32.8835C68.0804 32.8835 74.2466 26.7176 74.2466 19.1373C74.2466 11.5571 68.0804 5.39084 60.5001 5.39084Z" fill="black" stroke="black"/>
</svg>
