<svg width="131" height="150" viewBox="0 0 131 150" fill="none" xmlns="http://www.w3.org/2000/svg">
<path d="M129.844 88.6781C129.762 88.524 130.571 89.8341 117.942 69.608C115.963 65.8529 114.918 61.6115 114.918 57.3358C114.918 41.9423 108.897 27.4919 97.9663 16.6469C75.353 -5.78776 38.8212 -5.4699 16.6253 17.1329C-1.34852 35.436 -4.26755 62.343 6.48603 83.3955C13.6567 97.3596 17.4473 112.979 17.4473 128.566V147.07C17.4473 148.688 18.7592 150 20.3769 150H84.7982C86.4159 150 87.7278 148.688 87.7278 147.07V126.468H100.551C108.479 126.468 114.929 120.017 114.929 112.089V100.317L123.064 100.187C125.818 100.14 128.295 98.6931 129.69 96.3175C131.08 93.9501 131.138 91.0941 129.844 88.6781ZM122.968 94.3281L111.953 94.5041C110.353 94.5299 109.07 95.8336 109.07 97.4334V112.089C109.07 116.787 105.249 120.608 100.551 120.608H84.7985C83.1808 120.608 81.8689 121.92 81.8689 123.538V144.14H23.3068V128.565C23.3068 112.052 19.2927 95.5072 11.7013 80.7243C8.0724 73.6201 6.1837 65.9285 6.08732 57.8683C5.79495 29.1603 28.7921 5.86491 57.5585 5.86491C86.004 5.86491 109.058 28.8676 109.058 57.336C109.058 62.6011 110.358 67.8266 112.815 72.4474C112.907 72.6193 112.118 71.3388 124.714 91.513C125.335 92.7774 124.417 94.3037 122.968 94.3281Z" fill="#1A1A1A"/>
<path d="M36.1715 48.3144C37.7895 48.3144 39.1012 47.0027 39.1012 45.3847C39.1012 43.7667 37.7895 42.455 36.1715 42.455C34.5535 42.455 33.2418 43.7667 33.2418 45.3847C33.2418 47.0027 34.5535 48.3144 36.1715 48.3144Z" fill="#1A1A1A"/>
<path d="M47.937 48.3144C49.555 48.3144 50.8667 47.0027 50.8667 45.3847C50.8667 43.7667 49.555 42.455 47.937 42.455C46.319 42.455 45.0073 43.7667 45.0073 45.3847C45.0073 47.0027 46.319 48.3144 47.937 48.3144Z" fill="#1A1A1A"/>
<path d="M59.7021 48.3144C61.3202 48.3144 62.6318 47.0027 62.6318 45.3847C62.6318 43.7667 61.3202 42.455 59.7021 42.455C58.0841 42.455 56.7724 43.7667 56.7724 45.3847C56.7724 47.0027 58.0841 48.3144 59.7021 48.3144Z" fill="#1A1A1A"/>
<path d="M68.4181 26.6561C63.3259 21.1259 56.0295 17.6547 47.9371 17.6547C32.5827 17.6547 20.091 30.1464 20.091 45.5009C20.091 52.0186 22.3467 58.2509 26.478 63.2385L23.3557 72.6056C22.7229 74.5042 24.1402 76.4615 26.1353 76.4615C26.9063 76.4615 26.5278 76.4263 40.7459 72.4043C43.9872 73.2694 47.4418 73.5665 50.9824 73.1798C58.2173 81.0486 68.951 83.8211 78.6605 81.2288C93.4252 85.4057 92.5346 85.2862 93.2708 85.2862C95.2679 85.2862 96.6826 83.3269 96.0504 81.4303L92.9281 72.063C97.0594 67.0754 99.3154 60.843 99.3154 54.3253C99.3154 37.8351 84.9517 24.8219 68.4181 26.6561ZM41.5873 66.5534C41.0503 66.3914 40.4773 66.3875 39.938 66.5416L30.6705 69.1894L32.5695 63.4922C32.9105 62.4701 32.6624 61.3434 31.9241 60.5583C28.072 56.4633 25.9501 51.1163 25.9501 45.5012C25.9501 33.3774 35.8134 23.5141 47.9371 23.5141C61.8482 23.5141 72.2696 36.3149 69.4675 49.9647C66.8757 62.4842 54.021 70.2974 41.5873 66.5534ZM87.482 69.3827C86.7437 70.1679 86.4956 71.2943 86.8363 72.3167L88.7356 78.0138C78.9405 75.2551 79.389 75.2533 78.6637 75.2533C77.7166 75.2533 67.5046 79.2706 57.8025 71.55C73.6415 65.5986 80.3473 47.0644 72.4843 32.3617C84.1382 32.894 93.4563 42.5423 93.4563 54.3256C93.4563 59.9404 91.3344 65.2878 87.482 69.3827Z" fill="#1A1A1A"/>
</svg>
